<?xml version="1.0" standalone="no"?>
<!DOCTYPE svg PUBLIC "-//W3C//DTD SVG 20010904//EN"
 "http://www.w3.org/TR/2001/REC-SVG-20010904/DTD/svg10.dtd">
<svg version="1.0" xmlns="http://www.w3.org/2000/svg"
 width="512.000000pt" height="512.000000pt" viewBox="0 0 512.000000 512.000000"
 preserveAspectRatio="xMidYMid meet">

<g transform="translate(0.000000,512.000000) scale(0.100000,-0.100000)"
fill="#000000" stroke="none">
<path d="M2260 5104 c-177 -38 -348 -171 -429 -334 -70 -143 -71 -150 -71
-817 l0 -593 -592 0 c-668 0 -675 -1 -818 -71 -165 -82 -297 -252 -335 -434
-20 -97 -20 -493 0 -590 38 -182 170 -352 335 -434 143 -70 150 -71 818 -71
l592 0 0 -592 c0 -668 1 -675 71 -818 58 -117 162 -221 279 -279 125 -61 186
-71 450 -71 264 0 325 10 450 71 117 58 221 162 279 279 70 143 71 150 71 818
l0 592 593 0 c667 0 674 1 817 71 165 82 297 252 335 434 20 97 20 493 0 590
-38 182 -170 352 -335 434 -143 70 -150 71 -817 71 l-593 0 0 593 c0 667 -1
674 -71 817 -82 165 -252 297 -434 335 -95 20 -502 19 -595 -1z m550 -405 c60
-27 98 -64 126 -124 l24 -50 0 -782 0 -783 783 0 782 0 50 -24 c60 -28 97 -66
124 -126 19 -41 21 -65 21 -250 0 -185 -2 -209 -21 -250 -27 -60 -64 -98 -124
-126 l-50 -24 -782 0 -783 0 0 -782 0 -783 -24 -50 c-28 -60 -66 -97 -126
-124 -41 -19 -65 -21 -250 -21 -185 0 -209 2 -250 21 -60 27 -98 64 -126 124
l-24 50 0 783 0 782 -782 0 -783 0 -50 24 c-60 28 -97 66 -124 126 -19 41 -21
65 -21 250 0 185 2 209 21 250 27 60 64 98 124 126 l50 24 783 0 782 0 0 783
c0 765 1 783 21 827 27 60 64 98 124 126 48 23 60 24 255 24 185 0 209 -2 250
-21z"/>
</g>
</svg>
