<?xml version="1.0" standalone="no"?>
<!DOCTYPE svg PUBLIC "-//W3C//DTD SVG 20010904//EN"
 "http://www.w3.org/TR/2001/REC-SVG-20010904/DTD/svg10.dtd">
<svg version="1.0" xmlns="http://www.w3.org/2000/svg"
 width="512.000000pt" height="512.000000pt" viewBox="0 0 512.000000 512.000000"
 preserveAspectRatio="xMidYMid meet">

<g transform="translate(0.000000,512.000000) scale(0.100000,-0.100000)"
fill="#000000" stroke="none">
<path d="M1783 5106 c-90 -22 -164 -65 -239 -140 -79 -79 -117 -149 -140 -254
-17 -84 -17 -120 0 -204 29 -135 122 -268 233 -330 48 -27 53 -33 53 -65 0
-46 -14 -69 -58 -97 -20 -13 -70 -51 -110 -85 l-73 -61 -247 0 c-273 0 -317
-6 -430 -61 -77 -37 -175 -128 -219 -200 -18 -30 -89 -190 -158 -357 -132
-318 -136 -336 -92 -367 26 -18 67 -19 90 -2 9 6 73 149 143 316 69 168 138
323 154 346 41 60 94 103 170 139 62 29 72 31 217 34 l152 4 6 -28 c50 -232
169 -396 356 -494 44 -23 78 -44 75 -48 -2 -4 -74 -177 -160 -384 -159 -383
-166 -409 -131 -438 7 -6 136 -62 287 -124 l273 -114 3 -971 2 -971 -580 0
-580 0 0 1506 0 1506 -29 29 c-35 34 -59 36 -95 8 l-26 -20 0 -460 c0 -304 -3
-459 -10 -459 -12 0 -389 155 -397 164 -3 3 9 40 26 83 38 96 39 125 5 152
-30 24 -62 27 -87 9 -19 -14 -127 -259 -127 -288 0 -40 40 -63 310 -175 l275
-114 3 -1025 2 -1025 26 -20 27 -21 1877 0 1877 0 27 21 26 20 0 655 c0 641 0
654 -20 674 -25 25 -71 26 -101 1 l-24 -19 -3 -601 -2 -601 -1125 0 -1125 0 0
1500 c0 1077 -3 1506 -11 1523 -11 25 -47 47 -75 47 -8 0 -26 -11 -39 -25
l-25 -24 0 -456 c0 -270 -4 -455 -9 -455 -11 0 -391 157 -398 164 -5 5 404
1001 444 1080 35 70 112 142 191 179 66 32 69 32 221 32 l154 0 13 -60 c25
-125 88 -240 180 -332 62 -63 86 -73 129 -57 10 4 23 21 30 38 17 39 5 72 -41
109 -19 16 -34 32 -34 37 0 4 15 11 34 14 55 10 166 71 229 126 58 50 59 50
129 50 l70 0 66 -56 c73 -60 164 -108 227 -120 l39 -7 -53 -49 c-99 -91 -239
-141 -378 -136 -60 2 -67 0 -89 -25 -30 -35 -30 -59 0 -94 24 -28 26 -28 133
-27 187 2 322 61 463 203 99 99 149 189 178 315 l17 78 155 -4 c149 -3 157 -4
221 -34 78 -37 136 -87 177 -152 34 -55 468 -1100 460 -1108 -8 -7 -358 -154
-385 -160 l-23 -6 0 460 0 461 -26 20 c-36 28 -60 26 -95 -8 l-29 -29 0 -757
0 -757 30 -30 c25 -24 36 -29 58 -23 62 15 62 16 62 267 l0 228 24 10 c177 67
526 220 545 238 17 17 22 30 18 51 -10 47 -476 1163 -510 1219 -44 73 -142
164 -219 201 -113 55 -157 61 -433 61 l-251 0 -59 51 c-33 28 -86 68 -117 90
-63 43 -64 45 -71 176 -8 132 -86 254 -211 327 -73 42 -91 76 -73 129 10 29
52 57 87 57 31 0 80 -53 80 -86 0 -53 25 -109 66 -151 135 -135 353 -38 354
157 1 269 -237 500 -514 500 -239 0 -462 -196 -496 -437 -28 -198 73 -413 237
-505 l54 -30 -3 -47 c-3 -43 -6 -48 -69 -96 -36 -27 -89 -69 -118 -92 l-53
-43 -203 0 -203 0 -77 65 c-42 36 -89 72 -105 80 -47 24 -60 52 -60 126 0 169
-92 311 -256 397 -12 6 -27 25 -34 42 -24 57 24 120 91 120 36 0 79 -53 79
-97 1 -83 70 -171 152 -194 89 -24 182 12 234 90 73 111 18 337 -116 471 -123
123 -310 176 -477 136z m233 -157 c59 -18 77 -30 135 -88 58 -58 70 -76 88
-135 12 -37 21 -83 21 -102 0 -38 -29 -74 -60 -74 -28 0 -60 35 -60 66 0 95
-85 201 -179 224 -130 31 -250 -39 -288 -169 -29 -102 17 -212 114 -267 120
-68 162 -135 173 -274 11 -135 36 -181 138 -246 28 -19 52 -36 52 -38 0 -3
-26 -16 -57 -31 -54 -25 -67 -27 -184 -25 l-126 1 -42 -33 c-22 -18 -65 -52
-95 -76 -58 -46 -145 -82 -199 -82 -33 0 -35 3 -47 48 -6 26 -14 53 -16 60 -2
8 9 12 33 12 60 0 110 21 170 71 32 27 83 66 114 88 108 77 139 131 139 244 0
87 -26 126 -121 180 -193 110 -234 379 -83 546 97 109 235 145 380 100z m1347
-14 c113 -53 193 -165 204 -283 5 -52 3 -62 -16 -81 -45 -45 -94 -14 -104 67
-11 97 -73 172 -165 198 -102 30 -205 -6 -267 -95 -26 -37 -30 -53 -33 -119
-5 -120 18 -154 172 -255 75 -50 107 -115 117 -237 4 -58 14 -112 24 -132 22
-42 62 -86 96 -103 14 -8 59 -42 100 -76 87 -73 138 -98 197 -99 23 0 42 -4
42 -8 0 -5 -7 -32 -16 -61 l-16 -54 -50 6 c-73 9 -143 45 -231 120 l-78 67
-124 0 -123 0 -52 -42 c-107 -88 -155 -119 -204 -133 -98 -29 -119 -19 -132
62 l-6 40 55 6 c66 6 97 21 161 78 27 24 79 65 115 90 88 62 121 121 121 221
0 96 -21 130 -115 190 -122 77 -180 178 -178 313 1 159 99 290 256 341 65 22
181 12 250 -21z m-1512 -1347 c-16 -29 -50 -106 -76 -170 -47 -116 -47 -117
-73 -107 -57 22 -192 120 -192 139 0 4 15 11 34 14 56 11 167 72 226 125 37
34 64 50 83 51 l27 0 -29 -52z"/>
<path d="M3484 2845 l-26 -26 4 -232 3 -232 32 -67 c39 -84 109 -155 188 -194
55 -26 69 -29 165 -29 99 0 110 2 171 32 80 39 150 111 187 191 27 56 27 61
30 298 l3 242 -27 21 c-26 20 -35 21 -366 21 l-339 0 -25 -25z m606 -289 c0
-177 -6 -206 -57 -266 -89 -106 -285 -103 -368 5 -46 62 -55 104 -55 271 l0
154 240 0 240 0 0 -164z"/>
</g>
</svg>
