<?xml version="1.0" standalone="no"?>
<!DOCTYPE svg PUBLIC "-//W3C//DTD SVG 20010904//EN"
 "http://www.w3.org/TR/2001/REC-SVG-20010904/DTD/svg10.dtd">
<svg version="1.0" xmlns="http://www.w3.org/2000/svg"
 width="512.000000pt" height="512.000000pt" viewBox="0 0 512.000000 512.000000"
 preserveAspectRatio="xMidYMid meet">

<g transform="translate(0.000000,512.000000) scale(0.100000,-0.100000)"
fill="#000000" stroke="none">
<path d="M2410 4684 c-560 -52 -1017 -269 -1395 -665 -301 -314 -493 -708
-562 -1150 -24 -156 -24 -461 0 -619 93 -606 430 -1133 942 -1473 124 -82 340
-186 491 -236 941 -314 1957 55 2488 903 340 543 409 1249 181 1862 -243 651
-825 1167 -1495 1323 -184 43 -494 69 -650 55z m340 -164 c721 -75 1341 -530
1624 -1192 409 -959 -11 -2082 -949 -2539 -815 -397 -1795 -188 -2374 506
-657 788 -604 1936 123 2660 414 412 1005 624 1576 565z"/>
<path d="M2490 3458 c-156 -79 -85 -315 88 -295 84 9 137 70 137 155 0 70 -28
115 -89 143 -54 24 -82 24 -136 -3z"/>
<path d="M2509 2931 l-29 -29 0 -667 c0 -565 2 -670 15 -694 24 -48 81 -56
120 -16 l25 24 0 678 c-1 716 1 696 -47 721 -34 18 -52 14 -84 -17z"/>
</g>
</svg>
