<?xml version="1.0" standalone="no"?>
<!DOCTYPE svg PUBLIC "-//W3C//DTD SVG 20010904//EN"
 "http://www.w3.org/TR/2001/REC-SVG-20010904/DTD/svg10.dtd">
<svg version="1.0" xmlns="http://www.w3.org/2000/svg"
 width="305.000000pt" height="280.000000pt" viewBox="0 0 305.000000 280.000000"
 preserveAspectRatio="xMidYMid meet">

<g transform="translate(0.000000,280.000000) scale(0.100000,-0.100000)"
fill="#000000" stroke="none">
<path d="M2007 2668 c-13 -18 -81 -126 -151 -239 l-128 -207 -76 -11 c-163
-23 -686 -80 -691 -75 -3 3 -19 31 -36 62 l-30 56 -335 162 c-184 89 -352 168
-373 175 -36 12 -39 11 -65 -14 -32 -32 -39 -7 104 -348 l104 -245 0 -680 0
-680 27 -26 c25 -24 544 -366 699 -461 l60 -38 560 66 c742 86 854 101 868
115 8 8 12 202 14 701 l3 690 58 92 c169 270 311 509 311 525 0 28 -24 44
-140 97 -240 108 -726 315 -742 315 -9 0 -28 -15 -41 -32z m440 -268 c322
-139 332 -144 319 -164 -7 -12 -75 -121 -150 -243 l-137 -223 -57 36 c-198
126 -562 371 -562 378 0 12 64 121 153 259 50 77 75 107 86 104 9 -2 166 -68
348 -147z m-1876 -127 l237 -115 100 -237 c55 -129 99 -237 97 -239 -2 -2
-127 76 -278 174 -228 147 -278 184 -293 213 -24 51 -144 323 -144 328 0 9 51
-13 281 -124z m1129 -403 c0 -121 -3 -220 -7 -220 -5 -1 -118 -14 -253 -29
-211 -25 -247 -27 -256 -15 -17 22 -164 369 -164 388 0 9 3 16 8 17 4 0 147
17 317 38 171 21 320 39 333 40 l22 1 0 -220z m291 67 c130 -84 298 -195 308
-204 2 -1 2 -6 -1 -9 -6 -5 -403 -54 -445 -54 l-23 0 0 180 c0 99 4 180 9 180
4 0 73 -42 152 -93z m-1228 -253 c150 -97 278 -182 285 -188 9 -9 12 -140 10
-612 l-3 -600 -295 192 -295 191 -3 603 c-2 547 -1 602 14 596 8 -3 138 -85
287 -182z m1667 -689 l0 -615 -22 -4 c-37 -8 -1160 -136 -1190 -136 l-28 0 0
610 c0 480 3 612 13 615 12 4 1164 142 1205 144 l22 1 0 -615z"/>
</g>
</svg>
