<?xml version="1.0" standalone="no"?>
<!DOCTYPE svg PUBLIC "-//W3C//DTD SVG 20010904//EN"
 "http://www.w3.org/TR/2001/REC-SVG-20010904/DTD/svg10.dtd">
<svg version="1.0" xmlns="http://www.w3.org/2000/svg"
 width="640.000000pt" height="640.000000pt" viewBox="0 0 640.000000 640.000000"
 preserveAspectRatio="xMidYMid meet">

<g transform="translate(0.000000,640.000000) scale(0.100000,-0.100000)"
fill="#000000" stroke="none">
<path d="M1780 5105 c-130 -36 -332 -165 -338 -216 -4 -32 21 -59 53 -59 13 0
53 22 89 49 121 92 244 136 340 121 115 -17 202 -120 194 -231 -7 -105 -42
-155 -239 -349 -163 -161 -181 -182 -216 -255 -38 -79 -38 -82 -38 -201 0
-119 0 -121 38 -196 150 -305 603 -369 863 -123 55 51 65 78 42 107 -28 35
-54 31 -105 -15 -103 -91 -196 -127 -328 -127 -136 0 -240 42 -319 130 -62 69
-81 121 -81 225 0 143 18 172 234 385 160 157 182 183 216 253 33 67 39 90 43
160 5 111 -20 178 -93 252 -89 89 -229 124 -355 90z"/>
<path d="M2052 4187 l-182 -182 0 -137 0 -138 38 -24 c20 -13 47 -27 60 -31
l22 -6 0 138 0 138 153 153 152 152 415 0 415 0 830 -830 829 -829 -568 -567
-567 -568 -830 830 -829 829 0 182 c0 168 -1 183 -17 183 -10 0 -37 9 -60 20
l-43 19 0 -228 0 -227 887 -887 c488 -488 889 -887 892 -887 3 0 300 294 659
653 l652 652 -888 888 -887 887 -475 0 -475 0 -183 -183z"/>
<path d="M2276 4169 c-25 -29 -26 -34 -12 -48 14 -14 18 -12 44 12 15 15 34
27 41 27 24 0 6 35 -20 38 -19 2 -33 -5 -53 -29z"/>
<path d="M2400 4180 c0 -18 7 -20 60 -20 53 0 60 2 60 20 0 18 -7 20 -60 20
-53 0 -60 -2 -60 -20z"/>
<path d="M2560 4180 c0 -18 7 -20 60 -20 53 0 60 2 60 20 0 18 -7 20 -60 20
-53 0 -60 -2 -60 -20z"/>
<path d="M2720 4180 c0 -18 6 -20 61 -20 52 0 60 2 57 18 -2 13 -15 18 -61 20
-52 3 -57 1 -57 -18z"/>
<path d="M2880 4180 c0 -18 7 -20 60 -20 53 0 60 2 60 20 0 18 -7 20 -60 20
-53 0 -60 -2 -60 -20z"/>
<path d="M3040 4180 c0 -14 7 -20 24 -20 13 0 29 -7 36 -15 30 -36 60 -8 33
30 -24 33 -93 37 -93 5z"/>
<path d="M3173 4113 c-21 -8 -15 -27 20 -61 34 -33 67 -42 67 -19 0 19 -73 85
-87 80z"/>
<path d="M2171 4066 c-33 -34 -37 -66 -8 -66 22 0 80 67 74 84 -10 25 -30 19
-66 -18z"/>
<path d="M3280 3982 c0 -10 16 -33 35 -52 31 -30 37 -32 50 -19 13 12 10 19
-21 52 -38 40 -64 48 -64 19z"/>
<path d="M2066 3961 c-18 -19 -26 -37 -24 -52 3 -25 38 -40 38 -18 0 7 12 25
26 40 27 28 27 59 1 59 -7 0 -26 -13 -41 -29z"/>
<path d="M2435 3921 c-81 -38 -135 -120 -135 -206 l0 -46 48 27 c34 19 52 37
64 65 24 56 69 81 137 76 47 -3 59 -9 88 -40 29 -32 33 -43 33 -92 0 -49 -4
-60 -33 -92 -30 -32 -41 -37 -92 -41 -39 -3 -70 -13 -93 -28 -19 -13 -39 -24
-43 -24 -23 0 -4 -20 33 -35 162 -65 332 48 331 220 0 97 -50 176 -138 216
-53 25 -147 25 -200 0z"/>
<path d="M3393 3874 c-6 -17 52 -84 73 -84 29 0 24 24 -12 61 -42 43 -52 47
-61 23z"/>
<path d="M2051 3841 c-8 -5 -11 -26 -9 -62 2 -42 7 -55 21 -57 15 -3 17 5 17
57 0 61 -6 76 -29 62z"/>
<path d="M3510 3765 c-11 -14 -8 -21 20 -50 34 -35 70 -46 70 -22 0 7 -17 30
-38 50 -35 34 -40 36 -52 22z"/>
<path d="M2053 3683 c-20 -7 -15 -30 7 -36 15 -4 20 0 20 13 0 22 -9 29 -27
23z"/>
<path d="M3620 3642 c0 -19 59 -82 77 -82 26 0 19 30 -16 64 -41 40 -61 46
-61 18z"/>
<path d="M3733 3534 c-6 -17 52 -84 74 -84 30 0 23 30 -14 64 -43 40 -51 43
-60 20z"/>
<path d="M2042 3437 c2 -21 9 -33 21 -35 27 -5 24 54 -4 61 -18 5 -20 1 -17
-26z"/>
<path d="M3853 3433 c-21 -8 -15 -27 20 -61 33 -32 67 -42 67 -19 0 10 -67 89
-73 86 -1 0 -8 -3 -14 -6z"/>
<path d="M2042 3303 c2 -46 7 -59 21 -61 15 -3 17 5 17 57 0 55 -2 61 -20 61
-19 0 -21 -5 -18 -57z"/>
<path d="M3960 3302 c0 -19 59 -82 77 -82 25 0 19 28 -13 63 -37 40 -64 48
-64 19z"/>
<path d="M4073 3194 c-6 -17 52 -84 73 -84 29 0 24 24 -12 61 -42 43 -52 47
-61 23z"/>
<path d="M2040 3167 c0 -36 40 -85 59 -72 16 9 14 30 -4 45 -8 7 -15 23 -15
36 0 17 -6 24 -20 24 -16 0 -20 -7 -20 -33z"/>
<path d="M4193 3093 c-21 -8 -15 -27 20 -61 36 -35 67 -42 66 -14 -1 21 -69
81 -86 75z"/>
<path d="M2130 3062 c0 -20 59 -82 77 -82 28 0 22 25 -13 61 -41 42 -64 50
-64 21z"/>
<path d="M4300 2962 c0 -19 59 -82 77 -82 27 0 20 32 -15 65 -41 39 -62 44
-62 17z"/>
<path d="M2243 2954 c-7 -19 53 -84 79 -84 28 0 21 23 -20 63 -42 41 -50 44
-59 21z"/>
<path d="M4413 2854 c-6 -17 52 -84 73 -84 29 0 24 24 -12 61 -42 43 -52 47
-61 23z"/>
<path d="M2354 2839 c-6 -11 62 -89 78 -89 24 0 18 34 -13 66 -34 35 -53 42
-65 23z"/>
<path d="M4533 2753 c-21 -8 -15 -27 20 -61 34 -33 67 -42 67 -19 0 19 -73 85
-87 80z"/>
<path d="M2470 2722 c0 -20 59 -82 77 -82 28 0 22 25 -13 61 -41 42 -64 50
-64 21z"/>
<path d="M4643 2610 c4 -16 2 -32 -3 -35 -12 -8 -1 -35 14 -35 7 0 23 11 36
25 l23 25 -23 25 c-33 35 -54 33 -47 -5z"/>
<path d="M2583 2614 c-7 -19 53 -84 79 -84 28 0 21 23 -20 63 -42 41 -50 44
-59 21z"/>
<path d="M4557 2492 c-41 -41 -47 -62 -19 -62 26 0 86 65 79 84 -9 24 -19 20
-60 -22z"/>
<path d="M2694 2499 c-6 -11 62 -89 78 -89 24 0 18 34 -13 66 -34 35 -53 42
-65 23z"/>
<path d="M4438 2373 c-34 -36 -40 -63 -14 -63 19 0 89 77 82 89 -12 19 -31 12
-68 -26z"/>
<path d="M2810 2382 c0 -20 59 -82 77 -82 28 0 22 25 -13 61 -41 42 -64 50
-64 21z"/>
<path d="M4327 2262 c-41 -41 -47 -62 -19 -62 26 0 86 65 79 84 -9 24 -19 20
-60 -22z"/>
<path d="M2923 2274 c-7 -20 64 -95 83 -87 23 9 16 27 -24 66 -42 41 -50 44
-59 21z"/>
<path d="M4206 2141 c-36 -37 -41 -61 -12 -61 18 0 88 78 81 90 -11 18 -31 10
-69 -29z"/>
<path d="M3034 2159 c-6 -11 62 -89 78 -89 24 0 18 34 -13 66 -34 35 -53 42
-65 23z"/>
<path d="M4097 2032 c-41 -41 -47 -62 -19 -62 26 0 86 65 79 84 -9 24 -19 20
-60 -22z"/>
<path d="M3150 2042 c0 -20 59 -82 77 -82 28 0 22 25 -13 61 -41 42 -64 50
-64 21z"/>
<path d="M3263 1934 c-7 -19 53 -84 79 -84 28 0 21 23 -20 63 -42 41 -50 44
-59 21z"/>
<path d="M3976 1911 c-36 -37 -41 -61 -12 -61 18 0 76 63 76 83 0 28 -23 20
-64 -22z"/>
<path d="M3867 1802 c-41 -41 -47 -62 -19 -62 26 0 86 65 79 84 -9 24 -19 20
-60 -22z"/>
<path d="M3374 1819 c-6 -11 62 -89 78 -89 24 0 18 34 -13 66 -34 35 -53 42
-65 23z"/>
<path d="M3490 1702 c0 -20 59 -82 77 -82 28 0 22 25 -13 61 -41 42 -64 50
-64 21z"/>
<path d="M3746 1681 c-36 -37 -41 -61 -12 -61 18 0 76 63 76 83 0 28 -23 20
-64 -22z"/>
<path d="M3603 1594 c-3 -10 4 -26 20 -42 l26 -26 26 24 c14 13 25 29 25 36 0
20 -19 27 -36 13 -11 -9 -18 -9 -26 -1 -16 16 -28 15 -35 -4z"/>
</g>
</svg>
